<svg xmlns="http://www.w3.org/2000/svg" viewBox="0 0 143.8 157.6" id="Calque_1"><style id="style2">.st0{fill:#fff}</style><path id="path4" d="M130.4 117.2C117 133 100.3 141 80.4 141c-18.1 0-33.1-5.9-45-17.7-11.9-11.8-17.8-26.5-17.8-44.1 0-2.3.1-4.6.3-6.8V32.1C7.7 45 2.6 60.3 2.6 77.9c0 20.1 6 37.2 18.1 51.4 14.4 16.8 34 25.2 58.9 25.2 13.1 0 24.9-2.5 35.5-7.5 10.6-5 19.5-12.1 26.5-21.2l-11.2-8.6z" class="st0"/><path id="path6" d="M115.3 10.9c-10.7-5.3-22.7-8-36-8-5.8 0-11.3.5-16.5 1.5v14.9c5.3-1.4 10.9-2.2 16.7-2.2 10.4 0 19.9 2.1 28.6 6.3 8.7 4.2 16.1 10.4 22.3 18.6l11.2-8.7c-6.8-9.5-15.6-17-26.3-22.4" class="st0"/><path id="path8" d="M78.6 111.6c-17.6 0-32-14.6-32-32.5s14.3-32.4 31.9-32.4c17.6 0 31.9 14.5 31.9 32.4.1 17.9-14.2 32.5-31.8 32.5m0-77.6c-12.1 0-23.6 5-32 13.8V8.9C42.2 10.8 38 13.2 34 16v67.7h.3c2.3 22.9 21.3 40.6 44.2 40.6 24.5 0 44.5-20.3 44.5-45.2.1-24.9-19.9-45.1-44.4-45.1" class="st0"/></svg>